<?xml version="1.0" encoding="utf-8"?>
<!-- Generator: Adobe Illustrator 16.0.0, SVG Export Plug-In . SVG Version: 6.00 Build 0)  -->
<!DOCTYPE svg PUBLIC "-//W3C//DTD SVG 1.1//EN" "http://www.w3.org/Graphics/SVG/1.1/DTD/svg11.dtd">
<svg version="1.1" id="Affiliate" xmlns="http://www.w3.org/2000/svg" xmlns:xlink="http://www.w3.org/1999/xlink" x="0px" y="0px"
	 width="512px" height="512px" viewBox="0 0 512 512" enable-background="new 0 0 512 512" xml:space="preserve">
<circle id="Background_30_" fill="#43B8C8" cx="256" cy="256" r="256"/>
<path id="Shadow_31_" opacity="0.1" d="M507.463,304.127L341.5,138.25L304.334,199l-41.428-17.395l-71.631-71.631L169,150
	l-35.333,167.667l-17.36,15.681l175.512,176.146C400.401,494.288,487.135,410.981,507.463,304.127z"/>
<g id="Affiliate_1_">
	<g>
		<g>
			
				<rect x="396.708" y="306.481" transform="matrix(-0.75 -0.6615 0.6615 -0.75 455.0887 909.4567)" fill="#43536C" width="5.427" height="124.481"/>
			<circle fill="#43536C" cx="359.777" cy="415.087" r="13.421"/>
		</g>
		<g>
			
				<rect x="181.376" y="248.555" transform="matrix(0.2577 0.9662 -0.9662 0.2577 434.7245 50.7115)" fill="#43536C" width="5.965" height="119.456"/>
			
				<rect x="150.346" y="123.623" transform="matrix(0.9778 0.2095 -0.2095 0.9778 50.0413 -27.1831)" fill="#43536C" width="5.966" height="197.977"/>
			<circle fill="#E6E7E8" cx="174.034" cy="125.193" r="22.927"/>
			<circle fill="#43536C" cx="129.358" cy="324.475" r="15.749"/>
		</g>
		<g>
			
				<rect x="300.834" y="140.194" transform="matrix(-0.8654 -0.5011 0.5011 -0.8654 466.5703 525.1677)" fill="#43536C" width="5.965" height="119.456"/>
			
				<rect x="383.353" y="139.573" transform="matrix(-0.8396 0.5433 -0.5433 -0.8396 840.2903 228.9576)" fill="#43536C" width="5.966" height="197.977"/>
			<circle fill="#E6E7E8" cx="440.581" cy="322.086" r="22.928"/>
			<circle fill="#43536C" cx="331.258" cy="149.582" r="15.749"/>
		</g>
	</g>
	<circle fill="#E6E7E8" cx="256" cy="256" r="87.029"/>
	<path fill="#43536C" d="M215.51,222.267c0-23.747,18.6-42.996,41.543-42.996c0.122,0,0.243,0.009,0.365,0.01v75.277
		c-0.111-0.001-0.233-0.008-0.342-0.008c-10.727,0-26.603,4.952-33.973-1.955C230.104,238.595,215.51,234.91,215.51,222.267z"/>
	<g>
		<path fill="#44BACA" d="M307.672,274.691c-4.937-6.15-36.859-18.283-36.859-18.283l-26.79-0.116c0,0-34.761,12.249-39.697,18.399
			c-6.589,8.213-9.999,40.917-9.999,40.917h42.544h16.777h64.027C317.675,315.608,314.265,282.904,307.672,274.691z"/>
	</g>
	<polygon fill="#F3CBB0" points="266.697,282.371 248.262,281.637 244.022,275.66 244.022,240.996 270.813,240.996 270.813,275.008 
			"/>
	<path fill="#E7B18B" d="M244.022,256.292c4.805,2.53,9.595,3.955,13.507,3.955c3.849,0,8.552-1.382,13.283-3.839v-15.412h-26.79
		V256.292z"/>
	<path fill="#F3CBB0" d="M294.133,219.394c0,20.218-23.344,36.606-36.604,36.606c-13.266,0-36.606-16.389-36.606-36.606
		c0-20.217,16.389-36.606,36.606-36.606C277.744,182.787,294.133,199.177,294.133,219.394z"/>
	<path fill="#43536C" d="M254.517,177.603c-28.883,1.294-31.64,15.121-32.436,15.121c-4.152,0-7.518,3.364-7.518,7.515
		c0,2.655,1.38,4.982,3.456,6.318c-0.604,4.554,0.022,10.016,2.903,16.549c0,0,2.896-4.635,4.406-9.943
		c1.892,2.85,7.761,6.865,25.983,5.228c0.618-2.208,1.199-3.79,1.625-4.819c0.233,0.005,0.469,0.005,0.702,0.01v4.813h20.839
		l1.592-6.191l1.015,6.191l10.393-0.71l-2.878-7.074l4.734,6.719l2,0.106c0.928,2.308,1.836,3.936,2.799,3.816
		C295.193,215.68,299.326,175.595,254.517,177.603z"/>
	<path fill="#E7E6E6" d="M263.653,315.608c4.021-9.744,7.159-40.601,7.159-40.601s-4.115,4.176-13.395,4.176
		c-9.156,0-13.397-4.176-13.397-4.176v0.396c0,0,4.048,28.313,9.615,40.205H263.653z"/>
	<g>
		<path fill="#EEA86C" d="M368.329,321.706c0,25.229-20.453,45.678-45.682,45.678c-25.224,0-45.673-20.449-45.673-45.678
			c0-25.228,20.449-45.681,45.673-45.681C347.876,276.025,368.329,296.479,368.329,321.706z"/>
		<path fill="#F6D275" d="M360.915,321.706c0,21.13-17.131,38.257-38.268,38.257c-21.129,0-38.26-17.127-38.26-38.257
			c0-21.133,17.131-38.267,38.26-38.267C343.784,283.439,360.915,300.573,360.915,321.706z"/>
		<g>
			<path fill="#EEA86C" d="M321.234,338.291c3.637,0,6.188-0.581,7.65-1.738s2.192-2.628,2.192-4.427
				c0-1.321-0.316-2.456-0.954-3.403c-0.635-0.943-1.486-1.769-2.548-2.479c-1.062-0.707-2.292-1.345-3.686-1.91
				c-1.391-0.565-2.823-1.111-4.286-1.627c-1.413-0.52-2.822-1.1-4.213-1.741c-1.394-0.631-2.632-1.413-3.72-2.334
				c-1.089-0.921-1.971-2.028-2.654-3.327c-0.685-1.298-1.024-2.895-1.024-4.781c0-3.354,0.997-6.104,3.006-8.254
				c2.01-2.147,4.92-3.507,8.747-4.072v-8.15h5.882v7.937c2.074,0.096,4.015,0.355,5.806,0.779s3.208,0.829,4.251,1.207
				l-1.345,5.523c-1.134-0.424-2.551-0.863-4.251-1.311c-1.699-0.447-3.823-0.676-6.374-0.676c-2.834,0-5.016,0.546-6.551,1.631
				s-2.307,2.62-2.307,4.603c0,1.089,0.229,2.013,0.676,2.765c0.447,0.757,1.096,1.429,1.948,2.021
				c0.852,0.588,1.853,1.122,3.01,1.592c1.157,0.474,2.444,0.967,3.861,1.486c1.841,0.71,3.586,1.443,5.244,2.196
				c1.649,0.756,3.102,1.665,4.351,2.727c1.256,1.063,2.257,2.326,3.017,3.789c0.749,1.463,1.127,3.235,1.127,5.313
				c0,3.354-1.013,6.058-3.044,8.112c-2.032,2.055-5.168,3.338-9.419,3.857v9.141h-5.882v-8.931
				c-3.304-0.092-5.997-0.454-8.074-1.096c-2.078-0.638-3.637-1.241-4.672-1.803l1.765-5.313c1.421,0.661,3.121,1.272,5.104,1.842
				C315.85,338.008,318.305,338.291,321.234,338.291z"/>
		</g>
	</g>
</g>
</svg>
